<?xml version="1.0" encoding="UTF-8"?>
<!DOCTYPE svg PUBLIC "-//W3C//DTD SVG 1.1//EN" "http://www.w3.org/Graphics/SVG/1.1/DTD/svg11.dtd">
<svg xmlns="http://www.w3.org/2000/svg" version="1.1" width="523px" height="391px" style="shape-rendering:geometricPrecision; text-rendering:geometricPrecision; image-rendering:optimizeQuality; fill-rule:evenodd; clip-rule:evenodd" xmlns:xlink="http://www.w3.org/1999/xlink">
<g><path style="opacity:0.999" fill="#910f08" d="M 240.5,110.5 C 325.439,106.562 393.939,137.896 446,204.5C 480.469,253.699 495.302,308.365 490.5,368.5C 485.859,369.127 481.193,369.46 476.5,369.5C 484.274,289.465 457.274,222.965 395.5,170C 325.57,118.218 250.57,109.551 170.5,144C 99.0052,180.877 57.8385,239.377 47,319.5C 44.8949,334.551 45.0616,349.551 47.5,364.5C 40.9266,365.638 40.9266,366.472 47.5,367C 48.3366,368.011 48.67,369.178 48.5,370.5C 43.8228,370.165 39.1561,369.665 34.5,369C 33.6634,367.989 33.33,366.822 33.5,365.5C 35.5273,365.662 37.5273,365.495 39.5,365C 37.8659,364.506 36.1992,364.34 34.5,364.5C 28.9146,283.376 56.5812,216.209 117.5,163C 153.518,133.995 194.518,116.495 240.5,110.5 Z M 226.5,254.5 C 226.5,255.167 226.167,255.5 225.5,255.5C 219.648,256.37 217.148,254.037 218,248.5C 220.279,251.381 223.112,253.381 226.5,254.5 Z M 306.5,341.5 C 301.467,340.115 299.467,336.781 300.5,331.5C 301.5,331.5 302.5,331.5 303.5,331.5C 303.698,335.092 304.698,338.426 306.5,341.5 Z M 294.5,351.5 C 300.335,352.844 302.168,356.177 300,361.5C 298.459,357.956 296.625,354.623 294.5,351.5 Z"/></g>
<g><path style="opacity:1" fill="#f8f6f4" d="M 238.5,148.5 C 236.865,152.131 237.532,155.297 240.5,158C 246.996,159.199 253.496,160.366 260,161.5C 264.01,161.497 267.844,160.664 271.5,159C 274.321,156.859 275.654,154.025 275.5,150.5C 284.139,152.902 291.639,157.235 298,163.5C 301.461,167.772 301.795,172.106 299,176.5C 298.25,177.126 297.416,177.626 296.5,178C 292.833,178.333 289.167,178.667 285.5,179C 278.233,184.486 270.233,186.152 261.5,184C 257.673,182.254 254.007,180.254 250.5,178C 244.86,178.384 239.194,178.384 233.5,178C 230.672,175.752 227.672,173.752 224.5,172C 222.524,171.812 220.524,171.979 218.5,172.5C 215.201,172.262 212.201,171.262 209.5,169.5C 208.563,163.861 210.563,159.361 215.5,156C 222.48,151.396 230.146,148.896 238.5,148.5 Z"/></g>
<g><path style="opacity:1" fill="#f7c52e" d="M 275.5,150.5 C 275.654,154.025 274.321,156.859 271.5,159C 267.844,160.664 264.01,161.497 260,161.5C 253.496,160.366 246.996,159.199 240.5,158C 237.532,155.297 236.865,152.131 238.5,148.5C 243.905,143.528 250.405,141.195 258,141.5C 265.803,140.983 271.636,143.983 275.5,150.5 Z"/></g>
<g><path style="opacity:0.314" fill="#06025d" d="M 208.5,176.5 C 210.128,175.147 211.462,175.481 212.5,177.5C 212.5,181.833 212.5,186.167 212.5,190.5C 211.675,186.353 211.175,182.019 211,177.5C 210.329,176.748 209.496,176.414 208.5,176.5 Z"/></g>
<g><path style="opacity:0.91" fill="#e4b734" d="M 208.5,176.5 C 209.496,176.414 210.329,176.748 211,177.5C 211.175,182.019 211.675,186.353 212.5,190.5C 212.559,194.736 213.559,198.736 215.5,202.5C 215.376,203.107 215.043,203.44 214.5,203.5C 207.993,196.481 205.16,188.148 206,178.5C 206.708,177.619 207.542,176.953 208.5,176.5 Z"/></g>
<g><path style="opacity:1" fill="#ecbd35" d="M 225.5,176.5 C 226.97,178.159 227.637,180.159 227.5,182.5C 225.082,192.552 225.082,202.552 227.5,212.5C 224.463,209.94 222.629,206.607 222,202.5C 220.842,197.216 220.008,191.883 219.5,186.5C 218.995,181.489 220.995,178.155 225.5,176.5 Z"/></g>
<g><path style="opacity:0.157" fill="#5e4f49" d="M 212.5,177.5 C 213.518,182.984 214.184,188.651 214.5,194.5C 213.833,193.167 213.167,191.833 212.5,190.5C 212.5,186.167 212.5,181.833 212.5,177.5 Z"/></g>
<g><path style="opacity:1" fill="#860f09" d="M 343.5,175.5 C 343.877,178.077 343.377,180.744 342,183.5C 334.456,190.692 325.956,196.525 316.5,201C 311.128,205.193 307.128,210.36 304.5,216.5C 305.515,220.131 305.681,223.798 305,227.5C 300.591,235.244 294.758,241.744 287.5,247C 282.436,250.191 277.436,253.358 272.5,256.5C 271.262,257.412 269.928,257.579 268.5,257C 265.223,253.563 262.557,249.729 260.5,245.5C 270.942,239.907 280.442,232.907 289,224.5C 293.722,219.39 296.555,213.39 297.5,206.5C 296.866,203.357 295.2,200.857 292.5,199C 284.5,197 276.5,197 268.5,199C 250.934,204.585 236.768,214.752 226,229.5C 223.73,233.93 223.063,238.597 224,243.5C 224.69,245.35 225.856,246.684 227.5,247.5C 226.631,249.717 226.298,252.05 226.5,254.5C 223.112,253.381 220.279,251.381 218,248.5C 217.148,254.037 219.648,256.37 225.5,255.5C 223.15,257.213 222.15,259.547 222.5,262.5C 214.153,261.495 210.986,256.828 213,248.5C 213.972,246.695 215.139,245.028 216.5,243.5C 215.335,236.161 217.002,229.494 221.5,223.5C 222.338,223.158 222.672,222.492 222.5,221.5C 238.066,203.13 257.899,192.463 282,189.5C 289.365,189.565 295.865,191.898 301.5,196.5C 307.981,191.187 314.314,185.687 320.5,180C 325.965,177.013 331.631,174.513 337.5,172.5C 339.836,173.001 341.836,174.001 343.5,175.5 Z M 226.5,254.5 C 226.5,255.167 226.167,255.5 225.5,255.5C 219.648,256.37 217.148,254.037 218,248.5C 220.279,251.381 223.112,253.381 226.5,254.5 Z"/></g>
<g><path style="opacity:1" fill="#620906" d="M 297.5,206.5 C 270.164,204.584 248.664,214.917 233,237.5C 231.259,240.309 230.092,243.309 229.5,246.5C 228.833,246.833 228.167,247.167 227.5,247.5C 225.856,246.684 224.69,245.35 224,243.5C 223.063,238.597 223.73,233.93 226,229.5C 236.768,214.752 250.934,204.585 268.5,199C 276.5,197 284.5,197 292.5,199C 295.2,200.857 296.866,203.357 297.5,206.5 Z"/></g>
<g><path style="opacity:0.129" fill="#36284a" d="M 225.5,176.5 C 228.897,177.258 230.23,179.425 229.5,183C 227.342,192.554 227.342,202.054 229.5,211.5C 229.043,212.298 228.376,212.631 227.5,212.5C 225.082,202.552 225.082,192.552 227.5,182.5C 227.637,180.159 226.97,178.159 225.5,176.5 Z"/></g>
<g><path style="opacity:0.402" fill="#88735b" d="M 343.5,175.5 C 347.42,179.343 347.42,183.343 343.5,187.5C 336.01,193.414 328.01,198.581 319.5,203C 314.128,207.193 310.128,212.36 307.5,218.5C 309.393,224.317 308.56,229.651 305,234.5C 297.846,242.831 289.68,249.831 280.5,255.5C 277.904,256.265 275.237,256.599 272.5,256.5C 277.436,253.358 282.436,250.191 287.5,247C 294.758,241.744 300.591,235.244 305,227.5C 305.681,223.798 305.515,220.131 304.5,216.5C 307.128,210.36 311.128,205.193 316.5,201C 325.956,196.525 334.456,190.692 342,183.5C 343.377,180.744 343.877,178.077 343.5,175.5 Z"/></g>
<g><path style="opacity:0.239" fill="#1a1145" d="M 212.5,190.5 C 213.167,191.833 213.833,193.167 214.5,194.5C 215.341,197.519 216.341,200.519 217.5,203.5C 217.167,204.167 216.833,204.833 216.5,205.5C 218.203,211.007 220.203,216.34 222.5,221.5C 222.672,222.492 222.338,223.158 221.5,223.5C 221.5,223.167 221.5,222.833 221.5,222.5C 218.248,216.739 215.582,210.739 213.5,204.5C 214.167,204.5 214.5,204.167 214.5,203.5C 215.043,203.44 215.376,203.107 215.5,202.5C 213.559,198.736 212.559,194.736 212.5,190.5 Z"/></g>
<g><path style="opacity:1" fill="#d6c2ac" d="M 297.5,206.5 C 296.555,213.39 293.722,219.39 289,224.5C 280.442,232.907 270.942,239.907 260.5,245.5C 259.217,243.132 257.55,240.965 255.5,239C 251.659,236.992 248.493,237.825 246,241.5C 245.828,245.871 245.328,250.204 244.5,254.5C 243.893,254.376 243.56,254.043 243.5,253.5C 244.434,252.432 244.768,251.099 244.5,249.5C 241.941,249.198 239.607,249.532 237.5,250.5C 236.033,247.108 233.366,245.775 229.5,246.5C 230.092,243.309 231.259,240.309 233,237.5C 248.664,214.917 270.164,204.584 297.5,206.5 Z"/></g>
<g><path style="opacity:1" fill="#950f08" d="M 171.5,207.5 C 175.926,207.927 180.26,208.761 184.5,210C 182.496,212.841 181.996,216.007 183,219.5C 184.346,222.87 186.179,225.87 188.5,228.5C 191.124,224.641 192.791,220.308 193.5,215.5C 193.594,213.088 192.594,211.255 190.5,210C 192.629,208.897 194.963,208.397 197.5,208.5C 199.5,208.667 201.5,208.833 203.5,209C 198.853,218.52 194.686,228.686 191,239.5C 189.545,242.912 187.712,246.079 185.5,249C 183.888,249.72 182.388,249.554 181,248.5C 177.412,242.325 174.078,235.991 171,229.5C 168.379,236.039 165.379,242.373 162,248.5C 160.612,249.554 159.112,249.72 157.5,249C 151.511,238.379 146.678,227.213 143,215.5C 141.959,213.415 140.459,211.748 138.5,210.5C 138.709,209.914 139.043,209.414 139.5,209C 145.833,208.333 152.167,208.333 158.5,209C 158.957,209.414 159.291,209.914 159.5,210.5C 157.446,215.272 157.946,219.938 161,224.5C 161.941,226.061 163.108,227.395 164.5,228.5C 170.448,221.702 169.781,215.702 162.5,210.5C 165.425,209.047 168.425,208.047 171.5,207.5 Z"/></g>
<g><path style="opacity:1" fill="#960f08" d="M 339.5,207.5 C 343.004,208.13 346.504,208.797 350,209.5C 348.919,212.267 348.086,215.267 347.5,218.5C 347.833,219.5 348.167,220.5 348.5,221.5C 352.371,216.464 357.038,212.297 362.5,209C 365.993,207.996 369.159,208.496 372,210.5C 373.13,215.383 371.13,218.05 366,218.5C 360.539,216.319 356.039,217.486 352.5,222C 358.086,223.581 362.586,226.748 366,231.5C 369.797,237.43 374.297,242.763 379.5,247.5C 379.167,247.833 378.833,248.167 378.5,248.5C 372.106,249.954 365.773,249.787 359.5,248C 357.951,246.786 356.785,245.286 356,243.5C 354.611,239.056 352.944,234.723 351,230.5C 350.311,229.643 349.478,228.977 348.5,228.5C 347.338,233.131 347.172,237.798 348,242.5C 348.851,244.592 349.518,246.592 350,248.5C 343.916,249.642 337.749,249.809 331.5,249C 330.692,248.692 330.025,248.192 329.5,247.5C 332.593,241.795 333.927,235.629 333.5,229C 333.927,222.371 332.593,216.205 329.5,210.5C 329.709,209.914 330.043,209.414 330.5,209C 333.695,208.819 336.695,208.319 339.5,207.5 Z"/></g>
<g><path style="opacity:0.976" fill="#d8ad34" d="M 213.5,204.5 C 215.582,210.739 218.248,216.739 221.5,222.5C 213.33,220.176 209.163,214.843 209,206.5C 210.11,204.963 211.61,204.297 213.5,204.5 Z"/></g>
<g><path style="opacity:0.943" fill="#f8f3f3" d="M 260.5,245.5 C 262.557,249.729 265.223,253.563 268.5,257C 269.928,257.579 271.262,257.412 272.5,256.5C 275.237,256.599 277.904,256.265 280.5,255.5C 292.269,252.755 295.769,256.755 291,267.5C 289.185,269.405 287.185,271.072 285,272.5C 283.081,274.691 281.747,277.024 281,279.5C 283.333,282.833 285.667,286.167 288,289.5C 290.546,286.963 292.212,283.963 293,280.5C 295.003,278.078 297.503,277.245 300.5,278C 302.822,279.924 305.489,281.257 308.5,282C 309.718,283.438 310.385,285.105 310.5,287C 308.442,289.764 307.275,292.931 307,296.5C 305.468,298.562 303.468,299.896 301,300.5C 298.835,299.417 296.835,298.084 295,296.5C 293.418,297.295 293.251,298.462 294.5,300C 293.569,303.767 291.236,305.934 287.5,306.5C 279.767,304.384 272.601,301.05 266,296.5C 262.07,302.703 257.903,308.703 253.5,314.5C 250.727,315.657 247.727,316.324 244.5,316.5C 243.093,314.692 241.926,312.692 241,310.5C 236.17,313.499 232.004,312.665 228.5,308C 226.055,297.436 230.388,292.769 241.5,294C 242,294.5 242.5,295 243,295.5C 243.287,293.109 243.787,290.776 244.5,288.5C 238.999,286.207 233.332,284.374 227.5,283C 223.122,280.532 221.955,277.032 224,272.5C 225.932,270.962 228.099,269.795 230.5,269C 226.467,268.463 223.8,266.296 222.5,262.5C 222.15,259.547 223.15,257.213 225.5,255.5C 226.167,255.5 226.5,255.167 226.5,254.5C 226.298,252.05 226.631,249.717 227.5,247.5C 228.167,247.167 228.833,246.833 229.5,246.5C 233.366,245.775 236.033,247.108 237.5,250.5C 240.089,250.461 242.089,251.461 243.5,253.5C 243.56,254.043 243.893,254.376 244.5,254.5C 245.328,250.204 245.828,245.871 246,241.5C 248.493,237.825 251.659,236.992 255.5,239C 257.55,240.965 259.217,243.132 260.5,245.5 Z"/></g>
<g><path style="opacity:1" fill="#8c0f08" d="M 249.5,243.5 C 251.144,243.286 252.644,243.62 254,244.5C 257.594,251.575 262.094,257.909 267.5,263.5C 274.441,261.505 281.441,260.838 288.5,261.5C 283.348,267.152 278.015,272.652 272.5,278C 277.667,284.5 282.833,291 288,297.5C 288.781,298.944 288.614,300.277 287.5,301.5C 279.316,298.14 271.483,294.14 264,289.5C 259.384,297.272 254.218,304.606 248.5,311.5C 247.5,311.167 246.833,310.5 246.5,309.5C 248.012,300.87 249.346,292.203 250.5,283.5C 244.486,282.107 238.486,280.607 232.5,279C 230.714,278.804 229.381,277.971 228.5,276.5C 235.171,272.999 242.171,270.333 249.5,268.5C 249.5,260.167 249.5,251.833 249.5,243.5 Z"/></g>
<g><path style="opacity:1" fill="#860000" d="M 237.5,250.5 C 239.607,249.532 241.941,249.198 244.5,249.5C 244.768,251.099 244.434,252.432 243.5,253.5C 242.089,251.461 240.089,250.461 237.5,250.5 Z"/></g>
<g><path style="opacity:1" fill="#8d170f" d="M 231.5,251.5 C 232.965,252.406 233.965,253.739 234.5,255.5C 240.054,255.933 240.554,257.266 236,259.5C 235.667,261.5 235.333,263.5 235,265.5C 234.044,264.421 233.211,263.255 232.5,262C 230.687,262.046 229.021,261.88 227.5,261.5C 228.347,260.155 229.513,259.155 231,258.5C 231.497,256.19 231.663,253.857 231.5,251.5 Z"/></g>
<g><path style="opacity:1" fill="#81170f" d="M 243.5,259.5 C 244.94,261.42 244.607,263.087 242.5,264.5C 241.692,264.192 241.025,263.692 240.5,263C 241.71,261.961 242.71,260.794 243.5,259.5 Z"/></g>
<g><path style="opacity:1" fill="#8a0d08" d="M 297.5,284.5 C 297.56,283.957 297.893,283.624 298.5,283.5C 300.109,285.94 302.443,287.107 305.5,287C 302.212,288.358 300.712,290.858 301,294.5C 299.953,291.501 297.787,290.001 294.5,290C 295.579,289.044 296.745,288.211 298,287.5C 298.74,286.251 298.573,285.251 297.5,284.5 Z"/></g>
<g><path style="opacity:1" fill="#981109" d="M 253.5,314.5 C 258.987,313.962 261.153,316.295 260,321.5C 254.317,326.607 248.317,327.274 242,323.5C 241.333,322.167 241.333,320.833 242,319.5C 243.045,318.627 243.878,317.627 244.5,316.5C 247.727,316.324 250.727,315.657 253.5,314.5 Z"/></g>
<g><path style="opacity:1" fill="#920f08" d="M 348.5,314.5 C 351.394,314.042 353.894,314.709 356,316.5C 356.333,322.167 356.667,327.833 357,333.5C 364.032,326.183 370.698,326.183 377,333.5C 378.207,341.762 379.207,350.096 380,358.5C 381.241,359.877 381.408,361.21 380.5,362.5C 374.301,365.136 368.135,365.136 362,362.5C 362.888,357.444 363.388,352.277 363.5,347C 363.333,344.167 363.167,341.333 363,338.5C 359.584,336.024 357.25,337.024 356,341.5C 355.343,348.613 355.676,355.613 357,362.5C 350.312,365.367 343.812,365.033 337.5,361.5C 339.921,354.576 340.921,347.41 340.5,340C 340.948,332.911 339.948,326.078 337.5,319.5C 340.808,316.85 344.475,315.184 348.5,314.5 Z"/></g>
<g><path style="opacity:1" fill="#950f08" d="M 148.5,315.5 C 154.925,315.13 161.258,315.63 167.5,317C 167.833,317.333 168.167,317.667 168.5,318C 166.078,320.003 165.245,322.503 166,325.5C 167.215,330.934 169.715,335.601 173.5,339.5C 179.409,331.863 178.742,324.863 171.5,318.5C 171.709,317.914 172.043,317.414 172.5,317C 180.181,315.04 187.847,315.04 195.5,317C 195.957,317.414 196.291,317.914 196.5,318.5C 195.024,319.88 194.024,321.547 193.5,323.5C 194.849,329.58 197.515,334.913 201.5,339.5C 204.855,334.781 206.855,329.447 207.5,323.5C 206.781,321.003 205.781,318.669 204.5,316.5C 208.463,315.56 212.463,315.393 216.5,316C 218.286,316.196 219.619,317.029 220.5,318.5C 218.142,320.024 216.309,322.024 215,324.5C 210.529,336.246 205.862,347.913 201,359.5C 196.904,366.317 193.238,365.984 190,358.5C 186.984,352.469 183.984,346.469 181,340.5C 178.194,347.25 175.194,353.917 172,360.5C 170.625,363.61 168.458,364.61 165.5,363.5C 158.695,352.268 153.529,340.268 150,327.5C 148.291,323.391 146.124,319.725 143.5,316.5C 145.415,316.784 147.081,316.451 148.5,315.5 Z"/></g>
<g><path style="opacity:1" fill="#940f08" d="M 257.5,327.5 C 258.496,327.414 259.329,327.748 260,328.5C 260.333,336.833 260.667,345.167 261,353.5C 261.353,356.539 262.52,359.205 264.5,361.5C 257.779,364.852 250.779,365.352 243.5,363C 242.692,362.692 242.025,362.192 241.5,361.5C 245.764,353.593 246.597,345.26 244,336.5C 243.535,335.069 242.701,333.903 241.5,333C 242.551,331.615 243.884,330.615 245.5,330C 249.609,329.056 253.609,328.222 257.5,327.5 Z"/></g>
<g><path style="opacity:1" fill="#970f08" d="M 306.5,341.5 C 309.539,343.456 312.372,345.79 315,348.5C 317.171,352.657 316.671,356.491 313.5,360C 303.226,366.616 293.893,365.616 285.5,357C 286.594,352.139 289.594,350.306 294.5,351.5C 285.373,345.833 284.373,338.999 291.5,331C 299.526,326.529 307.026,327.363 314,333.5C 315.165,339.504 312.665,342.171 306.5,341.5 Z M 306.5,341.5 C 304.698,338.426 303.698,335.092 303.5,331.5C 302.5,331.5 301.5,331.5 300.5,331.5C 299.467,336.781 301.467,340.115 306.5,341.5 Z M 294.5,351.5 C 296.625,354.623 298.459,357.956 300,361.5C 302.168,356.177 300.335,352.844 294.5,351.5 Z"/></g>
</svg>
